<svg xmlns="http://www.w3.org/2000/svg" xmlns:xlink="http://www.w3.org/1999/xlink" zoomAndPan="magnify" preserveAspectRatio="xMidYMid meet" version="1.0" viewBox="17.54 323.12 767.37 213.25"><defs><g></g><clipPath id="e2128e8489"><path d="M 661.164062 341.058594 L 718.226562 341.058594 L 718.226562 348.164062 L 661.164062 348.164062 Z M 661.164062 341.058594 " clip-rule="nonzero"></path></clipPath></defs><g fill="#000000" fill-opacity="1"><g transform="translate(10.228455, 467.959625)"><g><path d="M 84.03125 -144.84375 C 102.65625 -144.84375 118.054688 -138.71875 130.234375 -126.46875 C 142.410156 -114.21875 148.5 -97.207031 148.5 -75.4375 C 148.5 -61.394531 146.0625 -49.109375 141.1875 -38.578125 C 136.320312 -28.046875 129.945312 -19.914062 122.0625 -14.1875 C 106.738281 -3.007812 89.832031 2.578125 71.34375 2.578125 C 52.863281 2.578125 37.570312 -3.613281 25.46875 -16 C 13.363281 -28.394531 7.3125 -45.484375 7.3125 -67.265625 C 7.3125 -78.585938 8.921875 -88.796875 12.140625 -97.890625 C 15.367188 -106.984375 19.597656 -114.394531 24.828125 -120.125 C 30.054688 -125.863281 36.109375 -130.664062 42.984375 -134.53125 C 55.585938 -141.40625 69.269531 -144.84375 84.03125 -144.84375 Z M 40.828125 -24.5 C 44.554688 -18.195312 49.570312 -13.289062 55.875 -9.78125 C 62.175781 -6.269531 69.445312 -4.515625 77.6875 -4.515625 C 85.925781 -4.515625 93.269531 -6.59375 99.71875 -10.75 C 106.164062 -14.90625 111.179688 -20.347656 114.765625 -27.078125 C 122.066406 -40.546875 125.71875 -55.015625 125.71875 -70.484375 C 125.71875 -89.546875 121.921875 -104.878906 114.328125 -116.484375 C 105.878906 -129.515625 91.910156 -136.03125 72.421875 -136.03125 C 58.523438 -131.164062 47.992188 -122.785156 40.828125 -110.890625 C 33.671875 -98.992188 30.09375 -85.523438 30.09375 -70.484375 C 30.09375 -52.148438 33.671875 -36.820312 40.828125 -24.5 Z M 40.828125 -24.5 "></path></g></g></g><g fill="#000000" fill-opacity="1"><g transform="translate(166.025132, 467.959625)"><g><path d="M 49 2.578125 C 36.53125 2.578125 26.175781 -1.679688 17.9375 -10.203125 C 9.707031 -18.734375 5.59375 -30.804688 5.59375 -46.421875 C 5.59375 -62.035156 9.992188 -74.820312 18.796875 -84.78125 C 27.609375 -94.738281 38.820312 -99.71875 52.4375 -99.71875 C 60.03125 -99.71875 68.554688 -97.851562 78.015625 -94.125 L 75.859375 -79.9375 C 63.253906 -86.53125 52.4375 -89.828125 43.40625 -89.828125 C 35.957031 -86.109375 30.582031 -80.09375 27.28125 -71.78125 C 23.988281 -63.46875 22.34375 -55.300781 22.34375 -47.28125 C 22.34375 -36.394531 25.53125 -27.332031 31.90625 -20.09375 C 38.289062 -12.851562 45.921875 -9.234375 54.796875 -9.234375 C 63.679688 -9.234375 71.847656 -11.171875 79.296875 -15.046875 L 79.296875 -7.515625 C 68.984375 -0.785156 58.882812 2.578125 49 2.578125 Z M 49 2.578125 "></path></g></g></g><g fill="#000000" fill-opacity="1"><g transform="translate(253.271267, 467.959625)"><g><path d="M 37.609375 -18.90625 C 37.609375 -14.613281 38.46875 -11.390625 40.1875 -9.234375 C 41.90625 -7.085938 44.769531 -6.015625 48.78125 -6.015625 C 52.789062 -6.015625 57.59375 -7.085938 63.1875 -9.234375 L 63.1875 -3.21875 C 54.875 0.644531 47.421875 2.578125 40.828125 2.578125 C 34.242188 2.578125 29.050781 0.753906 25.25 -2.890625 C 21.457031 -6.546875 19.5625 -12.242188 19.5625 -19.984375 L 19.5625 -89.40625 L 2.15625 -92.84375 L 2.15625 -97.140625 L 19.5625 -97.140625 L 19.5625 -104.875 L 37.609375 -117.984375 L 37.609375 -97.140625 L 63.1875 -97.140625 L 63.1875 -89.40625 L 37.609375 -89.40625 Z M 37.609375 -18.90625 "></path></g></g></g><g fill="#000000" fill-opacity="1"><g transform="translate(323.970729, 467.959625)"><g><path d="M 61.25 -22.78125 L 61.25 -44.921875 C 50.9375 -44.203125 42.484375 -41.90625 35.890625 -38.03125 C 29.296875 -34.164062 26 -30.007812 26 -25.5625 C 26 -21.125 27.144531 -17.289062 29.4375 -14.0625 C 31.726562 -10.84375 34.664062 -8.59375 38.25 -7.3125 C 42.976562 -8.164062 47.992188 -10.523438 53.296875 -14.390625 C 58.597656 -18.265625 61.25 -21.0625 61.25 -22.78125 Z M 78.875 -28.578125 C 78.875 -18.410156 82.597656 -10.675781 90.046875 -5.375 L 78.875 2.796875 L 61.46875 -12.890625 C 50.144531 -2.578125 39.6875 2.578125 30.09375 2.578125 C 23.78125 2.578125 18.367188 0.570312 13.859375 -3.4375 C 9.347656 -7.445312 7.09375 -12.492188 7.09375 -18.578125 C 7.09375 -24.671875 8.914062 -29.722656 12.5625 -33.734375 C 16.21875 -37.742188 21.054688 -40.828125 27.078125 -42.984375 C 37.390625 -46.847656 48.78125 -49.28125 61.25 -50.28125 L 61.25 -70.484375 C 61.25 -82.378906 54.375 -88.328125 40.625 -88.328125 C 32.738281 -88.328125 23.421875 -86.609375 12.671875 -83.171875 L 10.75 -88.546875 C 13.613281 -90.835938 18.585938 -93.269531 25.671875 -95.84375 C 32.765625 -98.425781 39.535156 -99.71875 45.984375 -99.71875 C 52.429688 -99.71875 57.835938 -98.859375 62.203125 -97.140625 C 66.578125 -95.421875 69.800781 -93.484375 71.875 -91.328125 C 73.957031 -89.179688 75.570312 -86.242188 76.71875 -82.515625 C 77.863281 -78.796875 78.507812 -75.859375 78.65625 -73.703125 C 78.800781 -71.554688 78.875 -68.691406 78.875 -65.109375 Z M 78.875 -28.578125 "></path></g></g></g><g fill="#000000" fill-opacity="1"><g transform="translate(419.382763, 467.959625)"><g><path d="M 31.8125 0 L 13.75 0 L 13.75 -97.140625 L 26.21875 -97.140625 L 31.15625 -79.078125 C 34.019531 -84.097656 38.566406 -88.828125 44.796875 -93.265625 C 51.035156 -97.710938 57.453125 -100.4375 64.046875 -101.4375 L 66.1875 -86.609375 C 60.882812 -86.609375 54.898438 -84.957031 48.234375 -81.65625 C 41.578125 -78.363281 36.101562 -74.710938 31.8125 -70.703125 Z M 31.8125 0 "></path></g></g></g><g fill="#000000" fill-opacity="1"><g transform="translate(487.718403, 467.959625)"><g><path d="M 16.125 0 L 16.125 -97.140625 L 33.953125 -97.140625 L 33.953125 0 Z M 13.96875 -127.109375 C 13.96875 -130.191406 15.003906 -132.804688 17.078125 -134.953125 C 19.160156 -137.109375 21.738281 -138.1875 24.8125 -138.1875 C 27.894531 -138.1875 30.546875 -137.109375 32.765625 -134.953125 C 34.992188 -132.804688 36.109375 -130.226562 36.109375 -127.21875 C 36.109375 -124.21875 34.992188 -121.566406 32.765625 -119.265625 C 30.546875 -116.972656 27.929688 -115.828125 24.921875 -115.828125 C 21.921875 -115.828125 19.34375 -116.9375 17.1875 -119.15625 C 15.039062 -121.382812 13.96875 -124.035156 13.96875 -127.109375 Z M 13.96875 -127.109375 "></path></g></g></g><g fill="#000000" fill-opacity="1"><g transform="translate(537.788255, 467.959625)"><g><path d="M 34.8125 -83.390625 C 40.832031 -89.117188 46.097656 -93.269531 50.609375 -95.84375 C 55.117188 -98.425781 60.453125 -99.71875 66.609375 -99.71875 C 72.773438 -99.71875 78.472656 -97.28125 83.703125 -92.40625 C 88.929688 -87.539062 91.546875 -79.160156 91.546875 -67.265625 L 91.546875 0 L 73.28125 0 L 73.28125 -65.109375 C 73.28125 -72.128906 72.023438 -77.394531 69.515625 -80.90625 C 67.015625 -84.414062 62.71875 -86.171875 56.625 -86.171875 C 50.539062 -86.171875 43.484375 -82.160156 35.453125 -74.140625 L 35.453125 0 L 17.1875 0 L 17.1875 -67.484375 C 17.1875 -77.222656 13.535156 -85.03125 6.234375 -90.90625 L 17.1875 -99.078125 Z M 34.8125 -83.390625 "></path></g></g></g><g fill="#000000" fill-opacity="1"><g transform="translate(645.234222, 467.959625)"><g><path d="M 22.5625 -52.859375 C 22.5625 -37.390625 26.035156 -26.25 32.984375 -19.4375 C 39.929688 -12.632812 48.382812 -9.234375 58.34375 -9.234375 C 68.300781 -9.234375 77.507812 -11.171875 85.96875 -15.046875 L 85.96875 -7.515625 C 74.21875 -0.785156 62.96875 2.578125 52.21875 2.578125 C 38.320312 2.578125 27.078125 -1.644531 18.484375 -10.09375 C 9.890625 -18.550781 5.59375 -30.800781 5.59375 -46.84375 C 5.59375 -62.894531 10.351562 -75.71875 19.875 -85.3125 C 29.40625 -94.914062 40.90625 -99.71875 54.375 -99.71875 C 64.832031 -99.71875 73.570312 -95.597656 80.59375 -87.359375 C 87.613281 -79.117188 91.125 -67.617188 91.125 -52.859375 Z M 43.40625 -89.609375 C 38.394531 -87.179688 34.097656 -83.28125 30.515625 -77.90625 C 26.929688 -72.53125 24.566406 -66.332031 23.421875 -59.3125 L 73.71875 -59.3125 C 73.28125 -65.332031 71.878906 -70.488281 69.515625 -74.78125 C 67.148438 -79.082031 64.320312 -82.238281 61.03125 -84.25 C 55.15625 -87.820312 49.28125 -89.609375 43.40625 -89.609375 Z M 43.40625 -89.609375 "></path></g></g></g><g fill="#000000" fill-opacity="1"><g transform="translate(746.018581, 467.959625)"><g><path d="M 18.484375 -1.078125 C 16.191406 -3.367188 15.046875 -6.160156 15.046875 -9.453125 C 15.046875 -12.753906 16.191406 -15.582031 18.484375 -17.9375 C 20.773438 -20.300781 23.566406 -21.484375 26.859375 -21.484375 C 30.160156 -21.484375 32.988281 -20.300781 35.34375 -17.9375 C 37.707031 -15.582031 38.890625 -12.753906 38.890625 -9.453125 C 38.890625 -6.160156 37.707031 -3.367188 35.34375 -1.078125 C 32.988281 1.210938 30.160156 2.359375 26.859375 2.359375 C 23.566406 2.359375 20.773438 1.210938 18.484375 -1.078125 Z M 18.484375 -1.078125 "></path></g></g></g><g clip-path="url(#e2128e8489)"><path fill="#000000" d="M 661.164062 341.058594 L 718.234375 341.058594 L 718.234375 348.164062 L 661.164062 348.164062 Z M 661.164062 341.058594 " fill-opacity="1" fill-rule="nonzero"></path></g><g fill="#000000" fill-opacity="1"><g transform="translate(218.957175, 535.942875)"><g><path d="M 21.328125 0 L 4.21875 0 L 4.21875 -30.6875 L 21.328125 -30.6875 L 21.328125 -27.515625 L 7.78125 -27.515625 L 7.78125 -17.625 L 20.5 -17.625 L 20.5 -14.484375 L 7.78125 -14.484375 L 7.78125 -3.1875 L 21.328125 -3.1875 Z M 21.328125 0 "></path></g></g></g><g fill="#000000" fill-opacity="1"><g transform="translate(248.840695, 535.942875)"><g><path d="M 17.84375 0 L 17.140625 -3.28125 L 16.984375 -3.28125 C 15.835938 -1.832031 14.691406 -0.851562 13.546875 -0.34375 C 12.410156 0.164062 10.988281 0.421875 9.28125 0.421875 C 7 0.421875 5.207031 -0.164062 3.90625 -1.34375 C 2.613281 -2.519531 1.96875 -4.191406 1.96875 -6.359375 C 1.96875 -11.003906 5.6875 -13.4375 13.125 -13.65625 L 17.015625 -13.796875 L 17.015625 -15.21875 C 17.015625 -17.019531 16.625 -18.347656 15.84375 -19.203125 C 15.070312 -20.066406 13.832031 -20.5 12.125 -20.5 C 10.207031 -20.5 8.039062 -19.914062 5.625 -18.75 L 4.546875 -21.40625 C 5.679688 -22.019531 6.925781 -22.5 8.28125 -22.84375 C 9.632812 -23.195312 10.988281 -23.375 12.34375 -23.375 C 15.082031 -23.375 17.113281 -22.765625 18.4375 -21.546875 C 19.757812 -20.335938 20.421875 -18.390625 20.421875 -15.703125 L 20.421875 0 Z M 9.96875 -2.453125 C 12.132812 -2.453125 13.835938 -3.046875 15.078125 -4.234375 C 16.316406 -5.429688 16.9375 -7.097656 16.9375 -9.234375 L 16.9375 -11.3125 L 13.453125 -11.171875 C 10.679688 -11.066406 8.679688 -10.632812 7.453125 -9.875 C 6.234375 -9.113281 5.625 -7.925781 5.625 -6.3125 C 5.625 -5.050781 6.003906 -4.09375 6.765625 -3.4375 C 7.523438 -2.78125 8.59375 -2.453125 9.96875 -2.453125 Z M 9.96875 -2.453125 "></path></g></g></g><g fill="#000000" fill-opacity="1"><g transform="translate(278.724216, 535.942875)"><g><path d="M 6.96875 -23 L 6.96875 -8.078125 C 6.96875 -6.203125 7.394531 -4.800781 8.25 -3.875 C 9.101562 -2.957031 10.4375 -2.5 12.25 -2.5 C 14.664062 -2.5 16.425781 -3.15625 17.53125 -4.46875 C 18.644531 -5.78125 19.203125 -7.925781 19.203125 -10.90625 L 19.203125 -23 L 22.6875 -23 L 22.6875 0 L 19.8125 0 L 19.3125 -3.078125 L 19.125 -3.078125 C 18.40625 -1.953125 17.410156 -1.085938 16.140625 -0.484375 C 14.878906 0.117188 13.4375 0.421875 11.8125 0.421875 C 9.019531 0.421875 6.925781 -0.238281 5.53125 -1.5625 C 4.132812 -2.894531 3.4375 -5.023438 3.4375 -7.953125 L 3.4375 -23 Z M 6.96875 -23 "></path></g></g></g><g fill="#000000" fill-opacity="1"><g transform="translate(311.084614, 535.942875)"><g></g></g></g><g fill="#000000" fill-opacity="1"><g transform="translate(328.226927, 535.942875)"><g><path d="M 28.71875 -15.640625 C 28.71875 -10.566406 27.34375 -6.691406 24.59375 -4.015625 C 21.84375 -1.335938 17.882812 0 12.71875 0 L 4.21875 0 L 4.21875 -30.6875 L 13.625 -30.6875 C 18.394531 -30.6875 22.101562 -29.363281 24.75 -26.71875 C 27.394531 -24.070312 28.71875 -20.378906 28.71875 -15.640625 Z M 24.9375 -15.515625 C 24.9375 -19.515625 23.929688 -22.523438 21.921875 -24.546875 C 19.910156 -26.578125 16.925781 -27.59375 12.96875 -27.59375 L 7.78125 -27.59375 L 7.78125 -3.078125 L 12.125 -3.078125 C 16.382812 -3.078125 19.582031 -4.125 21.71875 -6.21875 C 23.863281 -8.3125 24.9375 -11.410156 24.9375 -15.515625 Z M 24.9375 -15.515625 "></path></g></g></g><g fill="#000000" fill-opacity="1"><g transform="translate(365.541064, 535.942875)"><g><path d="M 13.40625 0.421875 C 10.007812 0.421875 7.328125 -0.613281 5.359375 -2.6875 C 3.390625 -4.757812 2.40625 -7.632812 2.40625 -11.3125 C 2.40625 -15.019531 3.316406 -17.960938 5.140625 -20.140625 C 6.972656 -22.328125 9.429688 -23.421875 12.515625 -23.421875 C 15.390625 -23.421875 17.664062 -22.472656 19.34375 -20.578125 C 21.03125 -18.679688 21.875 -16.179688 21.875 -13.078125 L 21.875 -10.875 L 6.03125 -10.875 C 6.09375 -8.175781 6.769531 -6.125 8.0625 -4.71875 C 9.363281 -3.320312 11.1875 -2.625 13.53125 -2.625 C 16.007812 -2.625 18.460938 -3.140625 20.890625 -4.171875 L 20.890625 -1.078125 C 19.648438 -0.535156 18.476562 -0.148438 17.375 0.078125 C 16.28125 0.304688 14.957031 0.421875 13.40625 0.421875 Z M 12.46875 -20.5 C 10.625 -20.5 9.148438 -19.894531 8.046875 -18.6875 C 6.953125 -17.488281 6.304688 -15.828125 6.109375 -13.703125 L 18.140625 -13.703125 C 18.140625 -15.898438 17.648438 -17.582031 16.671875 -18.75 C 15.691406 -19.914062 14.289062 -20.5 12.46875 -20.5 Z M 12.46875 -20.5 "></path></g></g></g><g fill="#000000" fill-opacity="1"><g transform="translate(395.634486, 535.942875)"><g></g></g></g><g fill="#000000" fill-opacity="1"><g transform="translate(412.776799, 535.942875)"><g><path d="M 23.671875 -21.75 C 23.671875 -18.632812 22.609375 -16.238281 20.484375 -14.5625 C 18.367188 -12.894531 15.335938 -12.0625 11.390625 -12.0625 L 7.78125 -12.0625 L 7.78125 0 L 4.21875 0 L 4.21875 -30.6875 L 12.171875 -30.6875 C 19.835938 -30.6875 23.671875 -27.707031 23.671875 -21.75 Z M 7.78125 -15.125 L 11 -15.125 C 14.15625 -15.125 16.441406 -15.632812 17.859375 -16.65625 C 19.273438 -17.6875 19.984375 -19.328125 19.984375 -21.578125 C 19.984375 -23.609375 19.316406 -25.117188 17.984375 -26.109375 C 16.660156 -27.097656 14.59375 -27.59375 11.78125 -27.59375 L 7.78125 -27.59375 Z M 7.78125 -15.125 "></path></g></g></g><g fill="#000000" fill-opacity="1"><g transform="translate(444.633419, 535.942875)"><g><path d="M 17.84375 0 L 17.140625 -3.28125 L 16.984375 -3.28125 C 15.835938 -1.832031 14.691406 -0.851562 13.546875 -0.34375 C 12.410156 0.164062 10.988281 0.421875 9.28125 0.421875 C 7 0.421875 5.207031 -0.164062 3.90625 -1.34375 C 2.613281 -2.519531 1.96875 -4.191406 1.96875 -6.359375 C 1.96875 -11.003906 5.6875 -13.4375 13.125 -13.65625 L 17.015625 -13.796875 L 17.015625 -15.21875 C 17.015625 -17.019531 16.625 -18.347656 15.84375 -19.203125 C 15.070312 -20.066406 13.832031 -20.5 12.125 -20.5 C 10.207031 -20.5 8.039062 -19.914062 5.625 -18.75 L 4.546875 -21.40625 C 5.679688 -22.019531 6.925781 -22.5 8.28125 -22.84375 C 9.632812 -23.195312 10.988281 -23.375 12.34375 -23.375 C 15.082031 -23.375 17.113281 -22.765625 18.4375 -21.546875 C 19.757812 -20.335938 20.421875 -18.390625 20.421875 -15.703125 L 20.421875 0 Z M 9.96875 -2.453125 C 12.132812 -2.453125 13.835938 -3.046875 15.078125 -4.234375 C 16.316406 -5.429688 16.9375 -7.097656 16.9375 -9.234375 L 16.9375 -11.3125 L 13.453125 -11.171875 C 10.679688 -11.066406 8.679688 -10.632812 7.453125 -9.875 C 6.234375 -9.113281 5.625 -7.925781 5.625 -6.3125 C 5.625 -5.050781 6.003906 -4.09375 6.765625 -3.4375 C 7.523438 -2.78125 8.59375 -2.453125 9.96875 -2.453125 Z M 9.96875 -2.453125 "></path></g></g></g><g fill="#000000" fill-opacity="1"><g transform="translate(474.51695, 535.942875)"><g><path d="M 14.1875 -23.421875 C 15.207031 -23.421875 16.125 -23.335938 16.9375 -23.171875 L 16.453125 -19.9375 C 15.503906 -20.144531 14.664062 -20.25 13.9375 -20.25 C 12.070312 -20.25 10.476562 -19.492188 9.15625 -17.984375 C 7.832031 -16.472656 7.171875 -14.59375 7.171875 -12.34375 L 7.171875 0 L 3.6875 0 L 3.6875 -23 L 6.5625 -23 L 6.96875 -18.75 L 7.140625 -18.75 C 7.992188 -20.238281 9.019531 -21.390625 10.21875 -22.203125 C 11.425781 -23.015625 12.75 -23.421875 14.1875 -23.421875 Z M 14.1875 -23.421875 "></path></g></g></g><g fill="#000000" fill-opacity="1"><g transform="translate(498.040361, 535.942875)"><g><path d="M 14.0625 -20.296875 L 8.203125 -20.296875 L 8.203125 0 L 4.71875 0 L 4.71875 -20.296875 L 0.609375 -20.296875 L 0.609375 -21.875 L 4.71875 -23.125 L 4.71875 -24.40625 C 4.71875 -30.0625 7.1875 -32.890625 12.125 -32.890625 C 13.34375 -32.890625 14.769531 -32.644531 16.40625 -32.15625 L 15.515625 -29.359375 C 14.171875 -29.796875 13.019531 -30.015625 12.0625 -30.015625 C 10.75 -30.015625 9.773438 -29.578125 9.140625 -28.703125 C 8.515625 -27.828125 8.203125 -26.425781 8.203125 -24.5 L 8.203125 -23 L 14.0625 -23 Z M 14.0625 -20.296875 "></path></g></g></g><g fill="#000000" fill-opacity="1"><g transform="translate(518.583127, 535.942875)"><g><path d="M 6.96875 -23 L 6.96875 -8.078125 C 6.96875 -6.203125 7.394531 -4.800781 8.25 -3.875 C 9.101562 -2.957031 10.4375 -2.5 12.25 -2.5 C 14.664062 -2.5 16.425781 -3.15625 17.53125 -4.46875 C 18.644531 -5.78125 19.203125 -7.925781 19.203125 -10.90625 L 19.203125 -23 L 22.6875 -23 L 22.6875 0 L 19.8125 0 L 19.3125 -3.078125 L 19.125 -3.078125 C 18.40625 -1.953125 17.410156 -1.085938 16.140625 -0.484375 C 14.878906 0.117188 13.4375 0.421875 11.8125 0.421875 C 9.019531 0.421875 6.925781 -0.238281 5.53125 -1.5625 C 4.132812 -2.894531 3.4375 -5.023438 3.4375 -7.953125 L 3.4375 -23 Z M 6.96875 -23 "></path></g></g></g><g fill="#000000" fill-opacity="1"><g transform="translate(550.943518, 535.942875)"><g><path d="M 33.015625 0 L 33.015625 -14.96875 C 33.015625 -16.800781 32.625 -18.175781 31.84375 -19.09375 C 31.0625 -20.007812 29.84375 -20.46875 28.1875 -20.46875 C 26.019531 -20.46875 24.414062 -19.84375 23.375 -18.59375 C 22.34375 -17.351562 21.828125 -15.4375 21.828125 -12.84375 L 21.828125 0 L 18.34375 0 L 18.34375 -14.96875 C 18.34375 -16.800781 17.953125 -18.175781 17.171875 -19.09375 C 16.390625 -20.007812 15.164062 -20.46875 13.5 -20.46875 C 11.3125 -20.46875 9.707031 -19.8125 8.6875 -18.5 C 7.675781 -17.1875 7.171875 -15.039062 7.171875 -12.0625 L 7.171875 0 L 3.6875 0 L 3.6875 -23 L 6.53125 -23 L 7.09375 -19.859375 L 7.265625 -19.859375 C 7.921875 -20.972656 8.847656 -21.84375 10.046875 -22.46875 C 11.242188 -23.101562 12.582031 -23.421875 14.0625 -23.421875 C 17.65625 -23.421875 20.003906 -22.117188 21.109375 -19.515625 L 21.28125 -19.515625 C 21.96875 -20.722656 22.960938 -21.675781 24.265625 -22.375 C 25.566406 -23.070312 27.050781 -23.421875 28.71875 -23.421875 C 31.3125 -23.421875 33.253906 -22.753906 34.546875 -21.421875 C 35.847656 -20.085938 36.5 -17.945312 36.5 -15 L 36.5 0 Z M 33.015625 0 "></path></g></g></g></svg>