<svg width="65" height="72" viewBox="0 0 65 72" fill="none" xmlns="http://www.w3.org/2000/svg">
<path fill-rule="evenodd" clip-rule="evenodd" d="M10.7951 71.4397H39.0047C40.3542 71.4397 41.4734 70.3206 41.4734 68.971C41.4734 67.6214 40.3542 66.5022 39.0047 66.5022H10.7292C7.70092 66.5022 5.26508 64.0335 5.26508 61.0381C5.26508 60.1493 5.4955 59.2935 5.8905 58.5035L17.2237 36.8772H41.0949L41.8026 38.2268C42.428 39.4447 43.9092 39.9056 45.1272 39.2802C46.3451 38.6547 46.8059 37.1735 46.1805 35.9556L39.8934 23.9081V5.6064H42.3622C43.7117 5.6064 44.8309 4.48724 44.8309 3.13765C44.8309 1.78807 43.7117 0.668903 42.3622 0.668903H37.8328C37.6987 0.649606 37.5635 0.638613 37.428 0.635986H20.9696C20.8352 0.638748 20.7011 0.64974 20.568 0.668903H16.0288C14.6792 0.668903 13.5601 1.78807 13.5601 3.13765C13.5601 4.48724 14.6792 5.6064 16.0288 5.6064H18.4976V23.9081L1.57842 56.1993C0.751924 57.7861 0.347723 59.5589 0.404703 61.3471C0.461684 63.1353 0.977928 64.8787 1.90376 66.4097C2.8296 67.9406 4.13386 69.2075 5.69106 70.0884C7.24826 70.9694 9.00597 71.4347 10.7951 71.4397ZM23.1059 25.6527L19.811 31.9397H38.5109L35.2192 25.6527C35.0255 25.2995 34.9236 24.9034 34.923 24.5006V5.6064H23.4022V24.5006C23.4022 24.8956 23.3034 25.2906 23.1059 25.6527ZM48.2872 69.8268C48.6492 70.7814 49.5709 71.4397 50.5913 71.4397V71.4726C51.6117 71.4726 52.5334 70.8143 52.8955 69.8597L53.7513 67.5556C54.8047 64.7247 55.2655 63.5397 55.9567 62.8485C56.648 62.1572 57.833 61.6964 60.6967 60.6431L63.0009 59.7872C63.9555 59.4252 64.6138 58.5035 64.6138 57.4831C64.6138 56.4627 63.9555 55.541 63.0009 55.1789L60.6967 54.3231C57.8659 53.2697 56.6809 52.8089 55.9897 52.1177C55.2984 51.4264 54.8376 50.2414 53.7842 47.3777L52.9284 45.0735C52.7503 44.6046 52.4353 44.2002 52.0245 43.9126C51.6136 43.6249 51.1257 43.4675 50.6242 43.4606C49.6038 43.4606 48.6822 44.1189 48.3201 45.0735L47.4642 47.3777C46.4109 50.2085 45.9501 51.3935 45.2588 52.0847C44.5676 52.776 43.3826 53.2368 40.5188 54.2902L38.2147 55.146C37.2601 55.5081 36.6017 56.4297 36.6017 57.4501C36.6017 58.4706 37.2601 59.3922 38.2147 59.7543L40.5188 60.6102C43.3497 61.6635 44.5347 62.1243 45.2259 62.8156C45.9172 63.4739 46.378 64.6589 47.4313 67.5227L48.2872 69.8268ZM48.7151 59.3593C47.9251 58.5693 47.0692 58.0097 45.9172 57.4831C47.0363 56.9564 47.9251 56.3968 48.7151 55.6068C49.5051 54.8168 50.0647 53.9281 50.5913 52.8089C51.118 53.9281 51.6776 54.8168 52.4676 55.6068C53.2576 56.3968 54.1463 56.9564 55.2655 57.4831C54.1134 58.0097 53.2576 58.5693 52.4676 59.3593C51.6776 60.1493 51.118 61.0381 50.5913 62.1572C50.0647 61.0051 49.5051 60.1493 48.7151 59.3593Z" fill="#2A2A2A"/>
</svg>
