<svg width="59" height="59" viewBox="0 0 59 59" fill="none" xmlns="http://www.w3.org/2000/svg">
<path d="M12.2917 54.0834H46.7083C49.4199 54.0834 51.625 51.8783 51.625 49.1668V12.2917C51.625 9.58021 49.4199 7.37508 46.7083 7.37508H41.7917C41.7917 6.72309 41.5327 6.0978 41.0716 5.63678C40.6106 5.17575 39.9853 4.91675 39.3333 4.91675H19.6667C19.0147 4.91675 18.3894 5.17575 17.9284 5.63678C17.4673 6.0978 17.2083 6.72309 17.2083 7.37508H12.2917C9.58012 7.37508 7.375 9.58021 7.375 12.2917V49.1668C7.375 51.8783 9.58012 54.0834 12.2917 54.0834ZM12.2917 12.2917H17.2083V17.2084H41.7917V12.2917H46.7083V49.1668H12.2917V12.2917Z" fill="#2A2A2A"/>
<path d="M27.0421 33.3989L22.6343 28.9911L19.1582 32.4672L27.0421 40.3511L39.8426 27.5505L36.3665 24.0745L27.0421 33.3989Z" fill="#2A2A2A"/>
</svg>
