<svg width="71" height="71" viewBox="0 0 71 71" fill="none" xmlns="http://www.w3.org/2000/svg">
    <path d="M47.857 54.5988C48.7445 55.0248 49.8479 56.1283 50.3834 57.0187C50.5609 58.2612 51.4484 53.4598 55.7912 50.6139M63.6042 53.2528C63.6042 56.3912 62.3574 59.401 60.1383 61.6202C57.9191 63.8394 54.9092 65.0861 51.7708 65.0861C48.6324 65.0861 45.6226 63.8394 43.4034 61.6202C41.1842 59.401 39.9375 56.3912 39.9375 53.2528C39.9375 50.1144 41.1842 47.1045 43.4034 44.8853C45.6226 42.6662 48.6324 41.4194 51.7708 41.4194C54.9092 41.4194 57.9191 42.6662 60.1383 44.8853C62.3574 47.1045 63.6042 50.1144 63.6042 53.2528Z" stroke="#2A2A2A" stroke-width="4" stroke-linecap="round" stroke-linejoin="round"/>
    <path d="M32.5651 41.4195C35.8328 41.4195 38.4818 38.7705 38.4818 35.5028C38.4818 32.2352 35.8328 29.5862 32.5651 29.5862C29.2974 29.5862 26.6484 32.2352 26.6484 35.5028C26.6484 38.7705 29.2974 41.4195 32.5651 41.4195Z" stroke="#2A2A2A" stroke-width="4" stroke-linecap="round" stroke-linejoin="round"/>
    <path d="M22.2108 53.2529C25.0212 50.5904 27.3879 49.1112 32.6389 48.8154M57.7108 34.0237C57.7108 31.657 57.7848 24.4091 57.415 21.4508C57.1931 19.0101 56.5275 15.682 53.4952 13.7591C51.6462 12.7976 49.8712 11.9101 41.366 11.8362M23.542 11.8362C17.1816 11.8362 12.2264 12.3539 9.78579 15.3862C7.71496 18.2173 7.83625 21.4508 7.641 22.4862C7.19725 28.0331 7.49308 47.4101 7.49308 50.6643C7.49308 54.0664 7.27121 60.98 11.9306 63.3112C15.9243 65.3081 20.066 65.0122 34.1181 65.0862M32.1212 5.91952C30.3462 5.91952 28.867 5.91952 27.3879 7.47264C26.1306 8.65598 26.3229 9.70027 25.8347 11.5404C25.1425 14.1289 24.7993 15.4956 25.7608 16.5695C26.6424 17.7233 28.1245 17.7292 29.435 17.7321H29.4587C30.716 17.8209 34.9405 17.7795 36.1889 17.7321C37.5261 17.6789 38.6059 17.6049 39.517 16.4216C40.3306 15.3655 39.8484 13.6053 39.3691 11.7622C38.8958 9.94581 39.0733 9.02577 37.816 7.47264C36.041 5.69764 33.8962 5.91952 32.1212 5.91952Z" stroke="#2A2A2A" stroke-width="5" stroke-linecap="round" stroke-linejoin="round"/>
</svg>
