<svg width="76" height="76" viewBox="0 0 76 76" fill="none" xmlns="http://www.w3.org/2000/svg">
<path d="M18.272 22.6416L22.8003 15.1366L26.062 9.72159C27.297 7.66325 30.2737 7.66325 31.5087 9.72159L36.1953 17.5116L32.3003 24.0349L29.1337 29.1649L18.272 22.6416ZM68.7803 41.0716L63.7137 32.6483L52.757 38.9816L59.7553 50.6666H63.3337C65.0134 50.6666 66.6243 49.9993 67.812 48.8116C68.9997 47.6239 69.667 46.013 69.667 44.3333C69.667 43.1933 69.3503 42.0849 68.7803 41.0716ZM50.667 66.4999H55.417C56.5953 66.4993 57.75 66.17 58.7514 65.549C59.7527 64.9281 60.561 64.0401 61.0853 62.9849L65.677 53.8333H50.667V47.4999L38.0003 60.1666L50.667 72.8333V66.4999ZM31.667 53.8333H18.0503L15.3903 58.2983C14.4403 59.8816 14.377 61.8449 15.2003 63.5233C16.087 65.3283 17.9553 66.4999 20.0137 66.4999H31.667V53.8333ZM19.3803 45.4416L24.8587 48.7349L20.5203 31.3499L3.16699 35.6883L8.55033 38.9183L7.25199 41.1033C6.14366 42.9716 6.04866 45.2516 7.03033 47.1833L12.192 57.5066L19.3803 45.4416ZM53.897 16.2766L49.7803 9.40492C48.6087 7.50492 46.5503 6.33325 44.3337 6.33325H33.1553L43.0353 22.7999L37.5887 26.0616L54.9737 30.3999L59.312 13.0149L53.897 16.2766Z" fill="#2A2A2A"/>
</svg>
