<svg width="57" height="74" viewBox="0 0 57 74" fill="none" xmlns="http://www.w3.org/2000/svg">
<path d="M20.459 41.3792L23.4851 31.523L15.5309 25.1251H25.3872L28.4997 15.4417L31.6122 25.1251H41.4684L33.4278 31.523L36.4538 41.3792L28.4997 35.2407L20.459 41.3792ZM7.74967 73.5417V46.8261C5.5594 44.4053 3.85905 41.6386 2.64863 38.5261C1.43822 35.4136 0.833008 32.0994 0.833008 28.5834C0.833008 20.8598 3.51322 14.3178 8.87363 8.95737C14.234 3.59696 20.7761 0.916748 28.4997 0.916748C36.2233 0.916748 42.7653 3.59696 48.1257 8.95737C53.4861 14.3178 56.1663 20.8598 56.1663 28.5834C56.1663 32.0994 55.5611 35.4136 54.3507 38.5261C53.1403 41.6386 51.44 44.4053 49.2497 46.8261V73.5417L28.4997 66.6251L7.74967 73.5417ZM28.4997 49.3334C34.2636 49.3334 39.1629 47.3161 43.1976 43.2813C47.2323 39.2466 49.2497 34.3473 49.2497 28.5834C49.2497 22.8195 47.2323 17.9202 43.1976 13.8855C39.1629 9.85078 34.2636 7.83341 28.4997 7.83341C22.7358 7.83341 17.8365 9.85078 13.8018 13.8855C9.76704 17.9202 7.74967 22.8195 7.74967 28.5834C7.74967 34.3473 9.76704 39.2466 13.8018 43.2813C17.8365 47.3161 22.7358 49.3334 28.4997 49.3334Z" fill="#2A2A2A"/>
</svg>
