<svg width="17" height="18" viewBox="0 0 17 18" fill="none" xmlns="http://www.w3.org/2000/svg">
<path d="M11.1279 9.50286C11.8223 8.9565 12.3292 8.20727 12.578 7.3594C12.8268 6.51154 12.8051 5.60722 12.516 4.77224C12.2269 3.93725 11.6848 3.21314 10.965 2.70064C10.2452 2.18813 9.38355 1.91272 8.49994 1.91272C7.61633 1.91272 6.75468 2.18813 6.03489 2.70064C5.31509 3.21314 4.77293 3.93725 4.48384 4.77224C4.19474 5.60722 4.17309 6.51154 4.42189 7.3594C4.67069 8.20727 5.17758 8.9565 5.87202 9.50286C4.68208 9.9796 3.64381 10.7703 2.8679 11.7907C2.092 12.8111 1.60754 14.023 1.46619 15.297C1.45595 15.39 1.46414 15.4842 1.49029 15.574C1.51643 15.6639 1.56002 15.7477 1.61856 15.8207C1.73678 15.9682 1.90874 16.0626 2.0966 16.0833C2.28447 16.1039 2.47284 16.0491 2.62029 15.9309C2.76774 15.8127 2.86219 15.6407 2.88285 15.4529C3.03839 14.0682 3.69863 12.7894 4.73743 11.8608C5.77622 10.9321 7.12074 10.4188 8.5141 10.4188C9.90747 10.4188 11.252 10.9321 12.2908 11.8608C13.3296 12.7894 13.9898 14.0682 14.1454 15.4529C14.1646 15.6269 14.2477 15.7877 14.3785 15.9041C14.5093 16.0205 14.6786 16.0843 14.8537 16.0833H14.9316C15.1173 16.0619 15.287 15.968 15.4038 15.8221C15.5205 15.6761 15.5749 15.49 15.5549 15.3041C15.4129 14.0264 14.9258 12.8115 14.146 11.7895C13.3661 10.7675 12.3228 9.97708 11.1279 9.50286ZM8.49994 8.99995C7.93956 8.99995 7.39176 8.83377 6.92582 8.52244C6.45988 8.21111 6.09673 7.76861 5.88228 7.25088C5.66783 6.73316 5.61172 6.16347 5.72105 5.61386C5.83037 5.06424 6.10022 4.55939 6.49647 4.16314C6.89272 3.76689 7.39757 3.49705 7.94718 3.38772C8.49679 3.2784 9.06648 3.33451 9.58421 3.54895C10.1019 3.7634 10.5444 4.12656 10.8558 4.5925C11.1671 5.05844 11.3333 5.60623 11.3333 6.16661C11.3333 6.91806 11.0348 7.63873 10.5034 8.17008C9.97205 8.70144 9.25138 8.99995 8.49994 8.99995Z" fill="#3C3C43" fill-opacity="0.29"/>
</svg>
