<svg width="32" height="28" viewBox="0 0 32 28" fill="none" xmlns="http://www.w3.org/2000/svg">
<path d="M28.9361 27.1039H26.8188C26.3761 27.1039 26.0188 26.7466 26.0188 26.3039V14.6426H29.7361V26.3039C29.7361 26.7466 29.3788 27.1039 28.9361 27.1039Z" fill="url(#paint0_linear_79_286)"/>
<path d="M5.3978 27.1039H3.28047C2.8378 27.1039 2.48047 26.7466 2.48047 26.3039V14.6426H6.1978V26.3039C6.1978 26.7466 5.84047 27.1039 5.3978 27.1039Z" fill="url(#paint1_linear_79_286)"/>
<path d="M30.9333 15.9494H1.06667C0.477333 15.9494 0 15.4721 0 14.8827V5.93874C0 5.3494 0.477333 4.87207 1.06667 4.87207H30.9333C31.5227 4.87207 32 5.3494 32 5.93874V14.8827C32 15.4721 31.5227 15.9494 30.9333 15.9494Z" fill="url(#paint2_linear_79_286)"/>
<path d="M4.35988 4.82133C5.69126 4.82133 6.77055 3.74204 6.77055 2.41067C6.77055 1.07929 5.69126 0 4.35988 0C3.02851 0 1.94922 1.07929 1.94922 2.41067C1.94922 3.74204 3.02851 4.82133 4.35988 4.82133Z" fill="url(#paint3_radial_79_286)"/>
<path d="M27.877 4.82133C29.2083 4.82133 30.2876 3.74204 30.2876 2.41067C30.2876 1.07929 29.2083 0 27.877 0C26.5456 0 25.4663 1.07929 25.4663 2.41067C25.4663 3.74204 26.5456 4.82133 27.877 4.82133Z" fill="url(#paint4_radial_79_286)"/>
<path d="M2.16 4.87207L0 8.6134V5.93874C0 5.3494 0.477333 4.87207 1.06667 4.87207H2.16Z" fill="black"/>
<path d="M11.8773 4.87207L5.47999 15.9494H1.06666C0.946656 15.9494 0.83199 15.9281 0.722656 15.8907L7.08532 4.87207H11.8773Z" fill="black"/>
<path d="M21.5948 4.87207L15.1975 15.9494H10.4055L16.8028 4.87207H21.5948Z" fill="black"/>
<path d="M31.2772 4.93074L24.9146 15.9494H20.1226L26.5199 4.87207H30.9332C31.0532 4.87207 31.1679 4.8934 31.2772 4.93074Z" fill="black"/>
<path d="M31.9998 12.208V14.8827C31.9998 15.472 31.5225 15.9493 30.9332 15.9493H29.8398L31.9998 12.208Z" fill="black"/>
<path opacity="0.2" d="M32 5.93874V14.8827C32 15.4721 31.5227 15.9494 30.9333 15.9494H1.06667C0.946666 15.9494 0.832 15.9281 0.722666 15.8907C0.301333 15.7494 0 15.3521 0 14.8827V5.93874C0 5.3494 0.477333 4.87207 1.06667 4.87207H30.9333C31.0533 4.87207 31.168 4.8934 31.2773 4.93074C31.6987 5.07207 32 5.4694 32 5.93874Z" fill="url(#paint5_linear_79_286)"/>
<path opacity="0.3" d="M32 14.8827V5.93874C32 5.3494 31.5227 4.87207 30.9333 4.87207H1.06667C0.946666 4.87207 0.832 4.8934 0.722666 4.93074C0.301333 5.07207 0 5.4694 0 5.93874V14.8827C0 15.4721 0.477333 15.9494 1.06667 15.9494H30.9333C31.0533 15.9494 31.168 15.9281 31.2773 15.8907C31.6987 15.7494 32 15.3521 32 14.8827Z" fill="url(#paint6_linear_79_286)"/>
<defs>
<linearGradient id="paint0_linear_79_286" x1="27.8775" y1="26.8061" x2="27.8775" y2="14.4527" gradientUnits="userSpaceOnUse">
<stop offset="0.3563" stop-color="#BFBEBE"/>
<stop offset="1" stop-color="#504F4F"/>
</linearGradient>
<linearGradient id="paint1_linear_79_286" x1="4.33913" y1="26.8061" x2="4.33913" y2="14.4527" gradientUnits="userSpaceOnUse">
<stop offset="0.3563" stop-color="#BFBEBE"/>
<stop offset="1" stop-color="#504F4F"/>
</linearGradient>
<linearGradient id="paint2_linear_79_286" x1="16" y1="4.4886" x2="16" y2="15.6427" gradientUnits="userSpaceOnUse">
<stop offset="0.0256" stop-color="#FFEE58"/>
<stop offset="0.4867" stop-color="#FDD642"/>
<stop offset="1" stop-color="#FBC02D"/>
</linearGradient>
<radialGradient id="paint3_radial_79_286" cx="0" cy="0" r="1" gradientUnits="userSpaceOnUse" gradientTransform="translate(4.35988 2.41067) scale(2.41067)">
<stop offset="0.5711" stop-color="#F44336"/>
<stop offset="0.9988" stop-color="#E12400"/>
</radialGradient>
<radialGradient id="paint4_radial_79_286" cx="0" cy="0" r="1" gradientUnits="userSpaceOnUse" gradientTransform="translate(27.877 2.41067) scale(2.41067)">
<stop offset="0.5711" stop-color="#F44336"/>
<stop offset="0.9988" stop-color="#E12400"/>
</radialGradient>
<linearGradient id="paint5_linear_79_286" x1="0" y1="10.4107" x2="32" y2="10.4107" gradientUnits="userSpaceOnUse">
<stop offset="0.0012001" stop-color="#BFBEBE"/>
<stop offset="0.05" stop-color="#212121" stop-opacity="0"/>
<stop offset="0.95" stop-color="#212121" stop-opacity="0"/>
<stop offset="1" stop-color="#BFBEBE"/>
</linearGradient>
<linearGradient id="paint6_linear_79_286" x1="16" y1="15.5855" x2="16" y2="5.0698" gradientUnits="userSpaceOnUse">
<stop offset="0.0012001" stop-color="#BFBEBE"/>
<stop offset="0.3" stop-color="#212121" stop-opacity="0"/>
<stop offset="0.85" stop-color="#212121" stop-opacity="0"/>
<stop offset="1" stop-color="#BFBEBE"/>
</linearGradient>
</defs>
</svg>
